<?xml version="1.0"?>
<svg xmlns="http://www.w3.org/2000/svg" height="512px" 
viewBox="0 -80 464 464" width="512px" class=""><g>
<path d="m0 16h48v32h-48zm0 0" data-original="#000000" 
class="active-path" data-old_color="#f4b331" 
fill="#f4b331"/><path d="m0 251.550781v36.449219h32v-36.449219c-4.726562 2.753907-10.144531 4.449219-16 4.449219s-11.273438-1.6875-16-4.449219zm0 0" 
data-original="#000000" class="active-path"
 data-old_color="#f4b331" fill="#f4b331"/><path 
 d="m32 224c0 8.835938-7.164062 16-16 16s-16-7.164062-16-16 7.164062-16 16-16 16 7.164062 16 16zm0 0" 
 data-original="#000000" class="active-path" 
 data-old_color="#f4b331" fill="#f4b331"/>
 <path d="m80 0h-8c-4.414062 0-8 3.585938-8 8v72h16zm0 0" 
 data-original="#000000" class="active-path" 
 data-old_color="#f4b331" fill="#f4b331"/><path d="m272 16h32v-8c0-4.414062-3.585938-8-8-8h-200v80h176zm0 0" data-original="#000000" class="active-path" data-old_color="#f4b331" fill="#f4b331"/><path d="m448 184h16v48h-16zm0 0" data-original="#000000" class="active-path" data-old_color="#f4b331" fill="#f4b331"/><path d="m416 168h16v80h-16zm0 0" data-original="#000000" class="active-path" data-old_color="#f4b331" fill="#f4b331"/><path d="m352 144v128h21.335938l26.664062-20v-88l-26.664062-20zm0 0" data-original="#000000" class="active-path" data-old_color="#f4b331" fill="#f4b331"/><path d="m0 196.457031c4.726562-2.753906 10.144531-4.449219 16-4.449219s11.273438 1.695313 16 4.449219v-36.449219h-32zm0 0" data-original="#000000" class="active-path" data-old_color="#f4b331" fill="#f4b331"/><path d="m296 96h-24v192h-16v-192h-200c-4.414062 0-8 3.585938-8 8v192c0 4.414062 3.585938 8 8 8h24v-184h16v184h200c4.414062 0 8-3.585938 8-8v-192c0-4.40625-3.585938-8-8-8zm0 0" data-original="#000000" class="active-path" data-old_color="#f4b331" fill="#f4b331"/><path d="m328 32h-40v48h8c13.230469 0 24 10.769531 24 24v184h8c4.414062 0 8-3.585938 8-8v-240c0-4.40625-3.585938-8-8-8zm0 0" data-original="#000000" class="active-path" data-old_color="#f4b331" fill="#f4b331"/></g> </svg>
